<?xml version="1.0" standalone="no"?>
<!DOCTYPE svg PUBLIC "-//W3C//DTD SVG 1.1//EN" "http://www.w3.org/Graphics/SVG/1.1/DTD/svg11.dtd" >
<svg xmlns="http://www.w3.org/2000/svg">
<metadata></metadata>
<defs>
<font id="thesans_7e-boldexpertexpertIt" horiz-adv-x="1126" >
<font-face units-per-em="2048" ascent="1638" descent="-410" />
<missing-glyph horiz-adv-x="446" />
<glyph horiz-adv-x="0" />
<glyph unicode="&#xd;" horiz-adv-x="0" />
<glyph unicode=" "  horiz-adv-x="446" />
<glyph unicode="&#x09;" horiz-adv-x="446" />
<glyph unicode="&#xa0;" horiz-adv-x="446" />
<glyph unicode="!" horiz-adv-x="1038" d="M113 1180l276 104l-47 291l227 -186l230 186l-47 -291l276 -104l-276 -105l47 -291l-230 187l-229 -187l49 291z" />
<glyph unicode="&#x22;" horiz-adv-x="840" d="M238 1008q4 69 6.5 131.5t6 122.5t6.5 98t9 70q11 50 46.5 82t88.5 32q55 0 94.5 -37t39.5 -96q0 -29 -11 -69t-30.5 -95.5t-38.5 -106t-47 -132.5h-170zM627 1008q5 103 9 184.5t9.5 142t11.5 95.5q11 51 46 82.5t90 31.5q53 0 92 -36.5t39 -96.5q0 -29 -11 -69 t-30.5 -95.5t-38.5 -106t-47 -132.5h-170z" />
<glyph unicode="#" horiz-adv-x="1411" d="M43 360l37 193h282l93 305h-258l39 193h274l98 331h223l-96 -331h246l98 331h224l-99 -331h264l-36 -193h-283l-92 -305h258l-37 -193h-277l-108 -360h-225l108 360h-248l-106 -360h-223l108 360h-264zM588 553h246l90 305h-246z" />
<glyph unicode="$" horiz-adv-x="1352" d="M39 27l65 249q120 -44 287 -61l76 377q-150 28 -235 97t-85 220q0 102 47 193t153 163t278 111l49 246h162l-45 -221q60 6 124 6l43 215h162l-45 -219q142 -9 260 -37l-61 -238q-90 32 -244 48l-74 -361q109 -20 180.5 -59t107.5 -99t36 -145q0 -170 -123.5 -304 t-359.5 -194l-66 -323h-160l60 295q-50 -11 -127 -11l-55 -284h-162l57 289q-175 14 -305 47zM426 977q0 -75 96 -109l60 285q-156 -52 -156 -176zM551 207q74 0 125 10l69 340q-80 13 -118 21zM680 852q17 -4 58.5 -10t60.5 -11l73 353q-88 0 -124 -4zM844 248 q149 61 149 180q0 75 -92 113z" />
<glyph unicode="%" horiz-adv-x="1649" d="M164 1004q0 121 53.5 217t144 150t197.5 54q143 0 217 -71t74 -205q0 -112 -53 -211t-145.5 -158t-205.5 -59q-132 0 -207 69t-75 214zM203 88l1140 1350l170 -142l-1140 -1349zM383 1020q0 -119 96 -119q45 0 80 33t53.5 85t18.5 109q0 117 -99 117q-44 0 -78 -31.5 t-52.5 -83t-18.5 -110.5zM879 240q0 119 53 217t144.5 152.5t197.5 54.5q92 0 157 -32t98.5 -94t33.5 -151q0 -112 -53 -212t-145.5 -159t-205.5 -59q-131 0 -205.5 69t-74.5 214zM1098 256q0 -59 23 -88t71 -29q46 0 81 33t52.5 86.5t17.5 108.5q0 116 -98 116 q-66 0 -106.5 -68.5t-40.5 -158.5z" />
<glyph unicode="&#x26;" horiz-adv-x="2040" d="M137 412q0 134 51 275t144 260.5t218.5 190t268.5 70.5q138 0 207.5 -53.5t69.5 -142.5q0 -67 -43 -124t-115 -91q100 20 227 20q93 0 205 -10l-45 -215q-105 12 -217 12q-121 0 -242 -11.5t-239.5 -32.5t-220.5 -48q-3 -14 -3 -43q0 -130 85 -194t266 -64 q207 0 383.5 78t302 212.5t194 310t68.5 362.5q0 115 -34.5 211.5t-101.5 164t-170 105t-243 37.5q-68 0 -98 -6l41 219q32 4 82 4q199 0 346.5 -55t241.5 -153.5t140 -227t46 -283.5q0 -232 -90.5 -452.5t-256.5 -392.5t-398 -271t-509 -99q-143 0 -247.5 29t-175 86.5 t-104.5 137.5t-34 184zM465 723q139 28 225.5 64t121 72.5t34.5 74.5q0 25 -18.5 40t-55.5 15q-50 0 -109 -34t-112 -95.5t-86 -136.5z" />
<glyph unicode="'" horiz-adv-x="449" d="M238 1008q4 69 6.5 131.5t6 122.5t6.5 98t9 70q11 50 46.5 82t88.5 32q55 0 94.5 -37t39.5 -96q0 -29 -11 -69t-30.5 -95.5t-38.5 -106t-47 -132.5h-170z" />
<glyph unicode="(" horiz-adv-x="614" d="M92 264q0 162 31.5 329.5t95.5 339t155 331t210 305.5h247q-151 -193 -260.5 -416t-167 -449t-59.5 -421q0 -188 26.5 -362.5t82.5 -315.5h-236q-37 91 -66 198t-44 221t-15 240z" />
<glyph unicode=")" horiz-adv-x="614" d="M-170 -395q123 156 215 320.5t154 332t93.5 333t31.5 324.5q0 191 -25.5 350.5t-81.5 303.5h236q60 -148 91 -311.5t31 -337.5q0 -235 -58 -467t-167.5 -444t-261.5 -404h-258z" />
<glyph unicode="*" horiz-adv-x="1192" d="M80 197l381 319l-256 320l176 141l254 -313l375 315l129 -154l-379 -319l256 -320l-176 -143l-254 317l-377 -317z" />
<glyph unicode="+" horiz-adv-x="1276" d="M109 418l41 219h401l82 416h248l-82 -416h403l-41 -219h-405l-80 -418h-248l82 418h-401z" />
<glyph unicode="," horiz-adv-x="518" d="M-68 -244q164 136 164 230q0 41 -24 77q-25 37 -25 82q0 62 45 111t115 49t116 -51t46 -133q0 -104 -81 -226t-261 -247z" />
<glyph unicode="-" d="M158 446l43 228h815l-43 -228h-815z" />
<glyph unicode="." horiz-adv-x="518" d="M41 139q0 73 51.5 122.5t118.5 49.5q46 0 82.5 -22t58 -60.5t21.5 -81.5q0 -71 -51.5 -121.5t-120.5 -50.5q-67 0 -113.5 49t-46.5 115z" />
<glyph unicode="/" horiz-adv-x="598" d="M-205 0l789 1382h256l-785 -1382h-260z" />
<glyph unicode="0" d="M74 383q0 24 6 93.5t8 88.5q30 229 112 420t219.5 304.5t317.5 113.5q125 0 206.5 -45t120 -135.5t38.5 -229.5q0 -79 -12 -172q-21 -171 -76 -324.5t-138.5 -271t-193 -183t-240.5 -65.5q-182 0 -275 96t-93 310zM354 403q0 -109 33 -154.5t102 -45.5q136 0 212.5 165 t109.5 447q10 80 10 162q0 113 -31.5 159t-101.5 46q-98 0 -162.5 -82.5t-100.5 -216t-58 -314.5q-13 -94 -13 -166z" />
<glyph unicode="1" d="M37 0l43 236h344l170 876l-313 -111v240l442 141h190l-221 -1146h299l-45 -236h-909z" />
<glyph unicode="2" d="M23 0l40 219l234 205q191 171 282.5 261.5t140 168.5t48.5 152q0 67 -45.5 112t-138.5 45q-76 0 -154.5 -24.5t-146.5 -63.5l-9 238q58 28 120.5 47.5t129 31t129.5 11.5q107 0 185 -25t128.5 -71t74.5 -107t24 -137q0 -80 -22.5 -149.5t-73 -144.5t-128 -155 t-198.5 -186l-205 -178v-4q103 5 207 6.5t313 1.5l-49 -254h-886z" />
<glyph unicode="3" d="M47 10l68 232q100 -39 225 -39q159 0 256.5 72t97.5 176q0 73 -59.5 115t-179.5 42q-114 0 -222 -12l39 209h62q133 0 235.5 30.5t158.5 86.5t56 129q0 61 -45.5 96t-138.5 35q-141 0 -291 -70v227q179 64 363 64q202 0 300.5 -79.5t98.5 -223.5q0 -53 -16.5 -103 t-55 -100.5t-93 -87t-132.5 -61.5l-2 -5q63 -10 110 -47t72 -93t25 -124q0 -91 -40 -179t-123 -160.5t-214 -116t-301 -43.5q-155 0 -254 30z" />
<glyph unicode="4" d="M41 317l16 222l656 843h358l-160 -829h183l-47 -236h-183l-61 -317h-252l61 317h-571zM326 549q88 4 336 4l110 561h-2z" />
<glyph unicode="5" d="M78 4l47 238q110 -37 223 -37q107 0 189 37t126 100t44 139q0 83 -66.5 128.5t-202.5 45.5q-117 0 -219 -16l143 743h760l-47 -249l-514 2l-53 -273q20 1 36 1.5t36 0.5q213 0 316 -91t103 -238q0 -122 -52 -223.5t-147 -176.5t-217.5 -115t-263.5 -40q-140 0 -241 24z " />
<glyph unicode="6" d="M80 389q0 252 101.5 486t298 380t464.5 146q64 0 162 -10l-45 -232q-87 17 -156 17q-106 0 -193 -38.5t-150.5 -108.5t-112.5 -173q-7 -15 -24 -49t-24 -49h2q55 60 132.5 93.5t160.5 33.5q85 0 153.5 -24.5t114.5 -71t69.5 -109.5t23.5 -139q0 -107 -42.5 -208.5 t-122.5 -182.5t-183.5 -127t-223.5 -46q-125 0 -217 48t-140 140t-48 224zM346 387q0 -81 43 -133.5t123 -52.5q78 0 141 43t99 112.5t36 147.5q0 72 -44 118t-126 46q-52 0 -103 -23.5t-88.5 -64t-59 -91.5t-21.5 -102z" />
<glyph unicode="7" d="M158 0q95 190 213 400t228.5 385.5t227.5 344.5q-44 -1 -230.5 -2t-367.5 -2l52 256h909l-43 -225q-97 -136 -187.5 -276.5t-174 -282.5t-169.5 -304t-147 -294h-311z" />
<glyph unicode="8" d="M61 281q0 23 5 51q13 115 94.5 205.5t224.5 173.5q-81 61 -121.5 128t-40.5 150q0 29 2 43q13 113 83.5 198.5t184.5 133t252 47.5q119 0 206 -37.5t131 -106.5t44 -157q0 -29 -2 -43q-12 -112 -92 -193.5t-207 -154.5q95 -70 144 -142.5t49 -168.5q0 -31 -2 -48 q-10 -89 -59 -160.5t-128 -122.5t-172.5 -76.5t-193.5 -25.5q-128 0 -218 36t-137 104.5t-47 165.5zM334 332q0 -66 43.5 -104t120.5 -38q67 0 123.5 23.5t91.5 66t39 91.5q0 65 -40 113.5t-134 107.5q-115 -61 -176.5 -122t-67.5 -138zM485 1024q0 -56 37 -98.5t105 -89.5 q114 62 173.5 116t63.5 119q0 55 -39 92t-116 37q-68 0 -116.5 -22.5t-75.5 -62t-32 -91.5z" />
<glyph unicode="9" d="M55 -6l45 237q39 -11 93 -17.5t94 -6.5q108 0 199.5 38t157.5 108t104 169q8 22 12 34t10 32h-2q-51 -47 -122 -74t-150 -27q-168 0 -259.5 94t-91.5 248q0 145 71 278.5t203.5 215.5t297.5 82q101 0 176 -28.5t126.5 -83.5t77 -133t25.5 -179q0 -126 -41 -291.5 t-139.5 -328.5t-275 -272t-428.5 -109q-105 0 -183 14zM412 877q0 -74 42 -118t124 -44q46 0 94.5 19.5t88.5 57.5t63.5 92.5t23.5 121.5q0 83 -41.5 129.5t-124.5 46.5q-77 0 -138.5 -43t-96.5 -112.5t-35 -149.5z" />
<glyph unicode=":" horiz-adv-x="551" d="M55 137q0 47 23 87.5t62.5 63.5t86.5 23q68 0 115 -48t47 -113q0 -73 -50 -124t-120 -51q-69 0 -116.5 48.5t-47.5 113.5zM166 717q0 48 23.5 87.5t62.5 63t86 23.5q46 0 82.5 -22.5t58 -60.5t21.5 -79q0 -72 -50 -123t-120 -51q-69 0 -116.5 48.5t-47.5 113.5z" />
<glyph unicode=";" horiz-adv-x="551" d="M-49 -244q162 137 162 230q0 39 -25 77q-22 39 -22 80q0 65 43.5 113.5t115.5 48.5q70 0 116 -51t46 -133q0 -104 -81 -226t-261 -247zM166 717q0 48 23.5 87.5t62.5 63t86 23.5q46 0 82.5 -22.5t58 -60.5t21.5 -79q0 -72 -50 -123t-120 -51q-69 0 -116.5 48.5 t-47.5 113.5z" />
<glyph unicode="&#x3c;" horiz-adv-x="1090" d="M127 526l747 596l158 -184l-573 -438l401 -430l-186 -160z" />
<glyph unicode="=" horiz-adv-x="1217" d="M111 217l41 211h907l-41 -211h-907zM186 608l43 211h908l-41 -211h-910z" />
<glyph unicode="&#x3e;" horiz-adv-x="1090" d="M45 94l573 438l-401 431l186 159l547 -616l-747 -596z" />
<glyph unicode="?" horiz-adv-x="1786" d="M6 625l559 190l-114 578l442 -389l444 389l-116 -580l559 -188l-559 -191l114 -577l-442 389l-444 -389l116 577z" />
<glyph unicode="@" horiz-adv-x="1675" d="M244 336l354 647h195l102 -647h-178l-15 115h-231l-61 -115h-166zM371 139l139 140q52 -52 114 -87t130.5 -52t134.5 -17q104 0 203.5 40t175.5 116l139 -140q-70 -70 -153.5 -117.5t-177.5 -71.5t-187 -24q-141 0 -275.5 53t-242.5 160zM381 1190q71 71 154.5 118 t177.5 71t186 24q146 0 280.5 -54t237.5 -159l-139 -139q-77 77 -175 117t-204 40q-105 0 -202 -40t-177 -117zM532 569h154l-22 148q-9 40 -9 88q-19 -52 -43 -86zM1001 842l29 141h494l-29 -141h-166l-98 -506h-162l98 506h-166z" />
<glyph unicode="A" horiz-adv-x="903" d="M59 852q0 107 35.5 205t100.5 174.5t155.5 121t200.5 44.5q113 0 188.5 -41.5t110.5 -111t35 -154.5q0 -151 -63.5 -278.5t-177.5 -202t-257 -74.5q-95 0 -169 33t-116.5 104t-42.5 180zM307 850q0 -135 113 -135q96 0 156.5 116.5t60.5 245.5q0 146 -111 146 q-72 0 -121.5 -58t-73.5 -144t-24 -171z" />
<glyph unicode="B" horiz-adv-x="584" d="M127 1087v209l256 86h217l-162 -829h-254l117 602z" />
<glyph unicode="C" horiz-adv-x="709" d="M39 553l37 192l174 138q105 82 145.5 129.5t40.5 91.5q0 80 -86 80q-75 0 -160 -41v207q124 47 254 47q91 0 151 -28t89 -76.5t29 -112.5q0 -85 -50 -161.5t-161 -168.5l-107 -86q70 4 267 4l-41 -215h-582z" />
<glyph unicode="D" horiz-adv-x="664" d="M33 553l55 174q62 -20 131 -20q67 0 109.5 32.5t42.5 79.5q0 36 -34.5 56t-103.5 20q-46 0 -98 -8l31 155q91 0 149 16.5t86.5 44.5t28.5 60q0 64 -82 64q-71 0 -160 -33v170q114 33 234 33q262 0 262 -187q0 -69 -41 -125t-127 -94q33 -7 58.5 -29t39 -54.5t13.5 -69.5 q0 -61 -27.5 -116t-81.5 -97t-132 -66t-177 -24q-88 0 -176 18z" />
<glyph unicode="E" horiz-adv-x="821" d="M45 694l29 176l379 512h356l-96 -493h114l-36 -195h-115l-27 -141h-235l28 141h-397zM293 885h182l64 327z" />
<glyph unicode="F" horiz-adv-x="702" d="M78 551l35 178q70 -24 143 -24q76 0 120 37.5t44 91.5q0 84 -137 84q-52 0 -119 -13l92 477h485l-36 -180h-261l-24 -127h22q120 -1 178 -53t58 -145t-53.5 -171.5t-154 -124.5t-234.5 -46q-84 0 -158 16z" />
<glyph unicode="G" horiz-adv-x="782" d="M94 809q0 112 39 218.5t112.5 191t175 132.5t220.5 48q92 0 137 -13l-35 -174q-49 17 -122 17q-161 0 -242 -146q-4 -7 -14 -21t-13 -22q29 26 74 40t92 14q116 0 177 -57t61 -150q0 -100 -53 -182t-142.5 -126t-191.5 -44q-133 0 -204 72t-71 202zM303 797 q0 -107 92 -107q64 0 108 48t44 120q0 40 -23 63t-67 23q-61 0 -107.5 -43.5t-46.5 -103.5z" />
<glyph unicode="H" horiz-adv-x="614" d="M104 553q71 172 162 343t170 292q-1 0 -108 -1t-211 -1l39 196h569l-31 -161q-209 -336 -329 -668h-261z" />
<glyph unicode="I" horiz-adv-x="793" d="M84 725q0 74 40.5 131.5t127.5 108.5q-82 60 -82 145q0 78 44 145.5t128.5 107.5t200.5 40q92 0 155.5 -23.5t97 -67t33.5 -102.5q0 -132 -165 -223q106 -63 106 -164q0 -118 -103.5 -204.5t-285.5 -86.5q-297 0 -297 193zM307 750q0 -30 25 -49t74 -19q35 0 67.5 13.5 t51 37.5t18.5 55q0 53 -111 97q-125 -62 -125 -135zM391 1161q0 -28 21 -49.5t73 -46.5q67 35 95 62.5t28 60.5q0 30 -23 49.5t-69 19.5q-54 0 -89.5 -29.5t-35.5 -66.5z" />
<glyph unicode="J" horiz-adv-x="782" d="M84 547l35 178q57 -20 135 -20q178 0 260 151q5 10 10.5 19t12.5 20q-60 -57 -170 -57q-118 0 -177 57t-59 147q0 92 46 175t134.5 132.5t206.5 49.5q144 0 212.5 -75.5t68.5 -203.5q0 -117 -56 -252t-185 -233t-333 -98q-82 0 -141 10zM340 1077q0 -84 90 -84 q65 0 109.5 48.5t44.5 101.5q0 44 -21.5 71t-66.5 27q-67 0 -111.5 -48.5t-44.5 -115.5z" />
<glyph unicode="K" horiz-adv-x="422" d="M25 344q149 124 149 199q0 30 -22.5 61t-22.5 74q2 53 39 94t98 41q43 0 76 -20.5t52.5 -57t19.5 -84.5q0 -58 -31.5 -125t-102 -139.5t-176.5 -138.5z" />
<glyph unicode="L" horiz-adv-x="528" d="M98 809l33 168h395l-32 -168h-396z" />
<glyph unicode="M" horiz-adv-x="467" d="M111 672q0 59 45.5 102t107.5 43q66 0 107 -42t41 -97q0 -58 -44 -102t-108 -44t-106.5 41.5t-42.5 98.5z" />
<glyph unicode="N" horiz-adv-x="532" d="M109 698q0 203 73.5 414t229.5 408h231q-97 -125 -164.5 -262t-104 -282t-36.5 -288q0 -210 65 -379h-223q-71 180 -71 389z" />
<glyph unicode="O" horiz-adv-x="532" d="M-31 307q97 125 166.5 263.5t106.5 285.5t37 283q0 209 -66 381h217q76 -183 76 -396q0 -202 -71 -409.5t-230 -407.5h-236z" />
<glyph unicode="P" horiz-adv-x="741" d="M94 561l39 184q90 -32 174 -32q58 0 93.5 27.5t35.5 70.5q0 37 -50.5 63.5t-99.5 49t-85.5 66t-36.5 120.5q0 67 32.5 125.5t90.5 97.5t127 51l28 144h203l-27 -133q72 -4 121 -19l-34 -178q-101 29 -156 29q-61 0 -90 -23t-29 -61q0 -42 87 -84t135 -80.5t48 -134.5 q0 -68 -33 -129t-90.5 -104t-134.5 -60l-34 -182h-205l33 172q-56 2 -142 20z" />
<glyph unicode="Q" horiz-adv-x="657" d="M109 905q0 70 20 131t59 111t90.5 82.5t112.5 44.5l21 108h188l-20 -104q49 0 106 -21l-51 -174q-48 27 -117 27q-72 0 -118 -45t-46 -121q0 -98 107 -98q65 0 137 31l-10 -179q-58 -19 -125 -22l-21 -123h-190l24 131q-78 17 -122.5 72.5t-44.5 148.5z" />
<glyph unicode="R" horiz-adv-x="692" d="M49 553l29 152q90 44 118.5 83.5t36.5 126.5h-110l33 162h92q4 78 12 131q46 215 301 215q56 0 152 -14l-33 -168q-42 16 -90 16q-78 0 -96 -81q-5 -22 -9 -99h148l-31 -162h-133q-6 -61 -25 -103.5t-67 -84.5q48 4 80 4h166l-37 -178h-537z" />
<glyph unicode="S" horiz-adv-x="848" d="M68 647l24 131h211l12 66h-209l23 129h160l-127 409h233l60 -202q20 -72 28 -129q34 64 88 141l134 190h241l-291 -409h158l-25 -129h-210l-13 -66h211l-26 -131h-211l-17 -94h-262l19 94h-211z" />
<glyph unicode="T" horiz-adv-x="629" d="M-47 307l47 191q45 -15 63 -15q31 0 49 15.5t33.5 64.5t34.5 139l45 224h-116l32 178h119l14 70q31 158 113.5 228.5t230.5 70.5q63 0 111 -11l-47 -178q-29 10 -74 10q-74 0 -94 -106l-18 -84h147l-31 -178h-151l-47 -238q-30 -149 -80.5 -236t-119.5 -121t-165 -34 q-48 0 -96 10z" />
<glyph unicode="U" horiz-adv-x="745" d="M113 870l32 170h623l-33 -170h-622z" />
<glyph unicode="V" horiz-adv-x="1870" d="M127 1087v209l256 86h217l-162 -829h-254l117 602zM154 -164l1194 1743l182 -125l-1194 -1745zM1104 0l37 190l170 140q105 82 146.5 130.5t41.5 94.5q0 76 -88 76q-76 0 -160 -41v207q124 47 254 47q91 0 151.5 -27.5t89 -76.5t28.5 -113q0 -86 -49 -161t-162 -169 l-109 -86q72 4 270 4l-41 -215h-579z" />
<glyph unicode="W" horiz-adv-x="1896" d="M127 1087v209l256 86h217l-162 -829h-254l117 602zM154 -164l1194 1743l182 -125l-1194 -1745zM1032 141l29 176l379 512h356l-96 -493h115l-37 -195h-115l-29 -141h-233l29 141h-398zM1280 332h182l64 327z" />
<glyph unicode="X" horiz-adv-x="1956" d="M35 553l55 174q62 -20 129 -20q46 0 81 15t54 41t19 56q0 36 -34.5 56t-102.5 20q-47 0 -99 -8l31 155q130 0 196 34.5t66 86.5q0 64 -80 64q-71 0 -160 -33v170q114 33 234 33q262 0 262 -187q0 -69 -41 -125t-127 -94q33 -7 58.5 -29t39 -54.5t13.5 -69.5 q0 -61 -27.5 -116t-81.5 -97t-132 -66t-177 -24q-88 0 -176 18zM229 -164l1194 1743l183 -125l-1194 -1745zM1126 141l29 174l381 514h354l-96 -493h115l-37 -195h-113l-28 -141h-234l27 141h-398zM1374 332h182l64 327z" />
<glyph unicode="Y" horiz-adv-x="1686" d="M37 -51l1087 1085l-805 -18v235h1184v-1183h-237l22 806l-1087 -1087z" />
<glyph unicode="Z" horiz-adv-x="1686" d="M184 -68v1184h236l-21 -807l1086 1088l164 -162l-1088 -1088l805 21v-236h-1182z" />
<glyph unicode="[" horiz-adv-x="1686" d="M37 1235l164 162l1087 -1088l-22 807h237v-1184h-1184v236l805 -18z" />
<glyph unicode="\" horiz-adv-x="1686" d="M184 68v1183h1182v-235l-805 20l1088 -1087l-164 -162l-1086 1087l21 -806h-236z" />
<glyph unicode="]" horiz-adv-x="1913" d="M127 520q0 103 33.5 207t101.5 191t170.5 138.5t231.5 51.5q136 0 198 -58.5t62 -160.5t-115 -201q73 21 193 29.5t256.5 18.5t209 43t72.5 106q0 63 -22 116l233 54q39 -73 39 -150q0 -121 -55.5 -194.5t-145.5 -110t-221 -57.5q21 -68 21 -117q0 -139 -88.5 -241 t-243 -155t-344.5 -53q-285 0 -435.5 129.5t-150.5 413.5zM371 592q108 32 178.5 68.5t102.5 78t32 90.5q0 78 -76 78q-97 0 -162.5 -94.5t-74.5 -220.5zM399 408q28 -101 117 -159.5t236 -58.5q112 0 201 27.5t139.5 77t50.5 113.5q0 61 -25 110q-185 -9 -300.5 -20 t-222.5 -33t-196 -57z" />
<glyph unicode="^" horiz-adv-x="1083" d="M143 782l398 600h198l281 -598l-195 -94l-215 506l-305 -506z" />
<glyph unicode="_" horiz-adv-x="1024" d="M0 -305h1024v-211h-1024v211z" />
<glyph unicode="`" horiz-adv-x="750" d="M272 1346l115 182l348 -225l-96 -152z" />
<glyph unicode="a" horiz-adv-x="903" d="M45 301q0 106 35 203t100.5 174t156 121.5t200.5 44.5q170 0 251.5 -87t81.5 -220q0 -151 -63 -277t-177 -201t-257 -75q-69 0 -129.5 18.5t-105 57t-69 98.5t-24.5 143zM293 297q0 -133 113 -133q50 0 91.5 33.5t69.5 88.5t42 119t14 121q0 144 -111 144q-71 0 -121 -58 t-74 -145t-24 -170z" />
<glyph unicode="b" horiz-adv-x="584" d="M66 535v208l258 86h215l-162 -829h-252l117 602z" />
<glyph unicode="c" horiz-adv-x="709" d="M-20 0l36 193l172 137q104 81 146.5 129.5t42.5 91.5q0 80 -88 80q-76 0 -160 -41v207q124 47 254 47q135 0 201.5 -59t66.5 -158q0 -85 -48.5 -160.5t-162.5 -169.5l-106 -86q69 4 266 4l-41 -215h-579z" />
<glyph unicode="d" horiz-adv-x="664" d="M-29 0l56 174q60 -20 131 -20q68 0 110.5 32.5t42.5 79.5q0 36 -34.5 56t-102.5 20q-48 0 -100 -8l32 155q129 0 196 34.5t67 86.5q0 64 -80 64q-79 0 -162 -33v170q52 17 112.5 25t120.5 8q265 0 265 -187q0 -70 -42 -125.5t-128 -93.5q50 -12 80 -53.5t30 -99.5 q0 -81 -48.5 -150.5t-144 -111t-225.5 -41.5q-82 0 -176 18z" />
<glyph unicode="e" horiz-adv-x="821" d="M-16 141l28 176l381 512h355l-97 -493h115l-37 -195h-113l-28 -141h-234l27 141h-397zM231 332h185l61 327z" />
<glyph unicode="f" horiz-adv-x="702" d="M18 -2l35 178q67 -24 142 -24q78 0 120.5 37.5t42.5 91.5q0 84 -137 84q-49 0 -119 -13l93 477h485l-37 -180h-260l-25 -127h23q121 -1 178 -53t57 -145q0 -144 -119.5 -243t-322.5 -99q-86 0 -156 16z" />
<glyph unicode="g" horiz-adv-x="782" d="M33 256q0 112 39 218.5t112.5 191t175 132.5t220.5 48q87 0 137 -12l-35 -175q-51 17 -123 17q-159 0 -242 -146q-8 -14 -13 -21.5t-13 -21.5q63 54 166 54q114 0 176.5 -57t62.5 -150q0 -101 -53.5 -182.5t-143 -125.5t-192.5 -44q-87 0 -148.5 32t-93.5 94t-32 148z M242 244q0 -107 92 -107q66 0 108.5 48.5t42.5 119.5q0 40 -22 63t-68 23q-61 0 -107 -43.5t-46 -103.5z" />
<glyph unicode="h" horiz-adv-x="614" d="M43 0q71 172 162 343t170 292q-23 -2 -320 -2l39 196h570l-31 -161q-96 -154 -181.5 -324.5t-148.5 -343.5h-260z" />
<glyph unicode="i" horiz-adv-x="793" d="M23 172q0 74 40.5 131t129.5 109q-84 58 -84 145q0 78 44.5 145.5t129 107.5t198.5 40q93 0 156.5 -23.5t97 -67t33.5 -102.5q0 -132 -166 -223q107 -63 107 -164q0 -75 -45 -142t-134 -107.5t-211 -40.5q-296 0 -296 192zM246 197q0 -30 25 -49t73 -19q57 0 97 29.5 t40 77.5q0 53 -110 96q-125 -62 -125 -135zM330 608q0 -28 22 -50t72 -46q67 35 95 62.5t28 60.5q0 30 -23 50t-67 20q-57 0 -92 -30t-35 -67z" />
<glyph unicode="j" horiz-adv-x="782" d="M23 -6l34 178q58 -20 136 -20q176 0 260 151q5 10 12 21.5t10 17.5q-60 -57 -170 -57q-117 0 -175 56.5t-58 147.5q0 70 26 134.5t75 114t122.5 79t161.5 29.5q143 0 211.5 -75.5t68.5 -203.5q0 -116 -55.5 -251t-185 -233.5t-332.5 -98.5q-82 0 -141 10zM281 524 q0 -84 88 -84q65 0 110 49t45 101q0 45 -22 71.5t-68 26.5q-67 0 -110 -48t-43 -116z" />
<glyph unicode="k" horiz-adv-x="422" d="M-37 -209q150 123 150 199q0 28 -23 61q-22 32 -22 74q1 34 17.5 65t47 50.5t72.5 19.5q65 0 107 -45t42 -117q0 -59 -31.5 -126t-101.5 -139t-176 -138z" />
<glyph unicode="l" horiz-adv-x="528" d="M43 256l33 168h395l-33 -168h-395z" />
<glyph unicode="m" horiz-adv-x="467" d="M49 119q0 58 47 101.5t107 43.5q66 0 107.5 -41.5t41.5 -97.5q0 -59 -44 -102t-109 -43t-107.5 40.5t-42.5 98.5z" />
<glyph unicode="n" horiz-adv-x="532" d="M47 145q0 135 31.5 272.5t98 275t175.5 274.5h230q-96 -123 -164.5 -261t-105 -283t-36.5 -288q0 -210 68 -379h-225q-72 182 -72 389z" />
<glyph unicode="o" horiz-adv-x="532" d="M-92 -246q95 121 165 261.5t107 287.5t37 283q0 212 -65 381h219q73 -183 73 -396q0 -133 -29.5 -267.5t-97.5 -276.5t-172 -273h-237z" />
<glyph unicode="p" horiz-adv-x="741" d="M33 8l39 185q88 -33 176 -33q58 0 92.5 27.5t34.5 70.5q0 37 -24.5 51.5t-100 49t-112 78t-36.5 120.5q0 68 33 126t91 97t126 51l29 144h203l-27 -133q71 -4 121 -19l-35 -178q-90 29 -156 29q-116 0 -116 -84q0 -41 88 -84.5t134 -81.5t46 -133q0 -68 -33 -129 t-90.5 -104t-134.5 -60l-33 -182h-207l33 172q-56 3 -141 20z" />
<glyph unicode="q" horiz-adv-x="657" d="M47 352q2 72 22.5 132.5t59 110t90 82t111.5 44.5l20 108h191l-21 -104q47 0 105 -20l-52 -175q-46 27 -116 27q-73 0 -117.5 -44.5t-44.5 -121.5q0 -98 104 -98q67 0 138 31l-11 -179q-58 -19 -125 -22l-20 -123h-191l25 131q-77 17 -122.5 73.5t-45.5 147.5z" />
<glyph unicode="r" horiz-adv-x="692" d="M-12 0l28 152q64 32 94.5 57.5t43.5 58.5t18 94h-111l33 162h92q4 76 15 131q41 215 301 215q53 0 149 -14l-33 -168q-44 17 -90 17q-78 0 -96 -82q-4 -22 -8 -99h147l-30 -162h-133q-6 -61 -26 -103.5t-67 -84.5q50 4 80 4h166l-37 -178h-536z" />
<glyph unicode="s" horiz-adv-x="848" d="M6 94l25 131h211l14 66h-211l25 129h157l-127 409h234l59 -202q20 -68 29 -129q27 50 88 141l135 190h240l-291 -409h160l-27 -129h-209l-14 -66h211l-27 -131h-209l-18 -94h-262l18 94h-211z" />
<glyph unicode="t" horiz-adv-x="629" d="M-109 -246l48 191q45 -15 63 -15q31 0 49 15.5t33.5 63.5t34.5 141l47 223h-119l33 178h119l14 70q33 158 114.5 228.5t231.5 70.5q69 0 109 -11l-45 -178q-31 10 -76 10q-71 0 -94 -106l-17 -84h146l-31 -178h-152l-47 -238q-43 -221 -130 -306t-234 -85q-49 0 -97 10z " />
<glyph unicode="u" horiz-adv-x="745" d="M51 317l33 170h623l-33 -170h-623z" />
<glyph unicode="v" horiz-adv-x="686" d="M74 358h166v1143h206v-1143h166l-268 -383z" />
<glyph unicode="w" horiz-adv-x="930" d="M61 365l136 135l163 -176v1177h207v-1179l166 176l135 -133l-403 -404z" />
<glyph unicode="x" horiz-adv-x="2247" d="M109 537q0 148 50 283.5t137 237.5t199 159t232 57q92 0 150.5 -26.5t85 -70.5t26.5 -96q0 -71 -59 -143q276 87 624 125q-7 186 -28 319h274q19 -156 25 -301q225 0 338 -4l-41 -221q-103 4 -299 4q-18 -286 -145.5 -483t-357 -298.5t-542.5 -101.5q-345 0 -507 146 t-162 414zM389 711q208 97 285.5 155t77.5 117q0 74 -90 74q-92 0 -169 -100.5t-104 -245.5zM397 487q25 -141 132 -206.5t296 -65.5q340 0 523 156t204 475q-167 -15 -314 -45t-287 -74.5t-279.5 -105t-274.5 -134.5z" />
<glyph unicode="y" horiz-adv-x="1024" d="M317 139q0 73 51.5 122.5t118.5 49.5q70 0 117 -48t47 -116q0 -71 -51.5 -121.5t-120.5 -50.5q-68 0 -115 49t-47 115z" />
<glyph unicode="z" horiz-adv-x="1024" d="M63 139q0 47 24 87t63.5 62.5t85.5 22.5q67 0 114 -48t47 -116q0 -71 -51.5 -121.5t-120.5 -50.5q-68 0 -115 49t-47 115zM571 139q0 47 23 86.5t62.5 62.5t86.5 23q46 0 83.5 -22.5t58 -60.5t20.5 -81q0 -71 -51.5 -121.5t-120.5 -50.5q-66 0 -114 49t-48 115z" />
<glyph unicode="{" horiz-adv-x="741" d="M106 727l39 199q74 3 121 22t77.5 64.5t47.5 130.5l10 61q21 119 75 205.5t145.5 134t220.5 47.5h45l-41 -207q-67 0 -106 -17t-61 -55t-38 -112l-12 -63q-30 -151 -92.5 -224.5t-155.5 -87.5v-4q135 -16 135 -200q0 -56 -12 -127l-88 -459q-17 -90 -17 -129 q0 -67 31 -91t107 -24l-39 -211h-45q-105 0 -170.5 31t-97 93t-31.5 157q0 73 18 166l92 471q8 40 8 82q0 77 -41 110.5t-125 36.5z" />
<glyph unicode="|" horiz-adv-x="565" d="M-16 -512l397 2048h207l-398 -2048h-206z" />
<glyph unicode="}" horiz-adv-x="737" d="M-100 -418l41 209q69 0 109 20.5t65.5 74t44.5 151.5l88 457q58 304 250 331v4q-138 21 -138 195q0 44 13 117l12 59q8 41 8 78q0 60 -32 83t-109 23l39 207h41q307 0 307 -268q0 -52 -12 -117l-15 -76q-8 -35 -8 -71q0 -71 42 -101.5t126 -33.5l-37 -199 q-110 -5 -166 -53t-82 -174l-88 -459q-23 -124 -59.5 -208.5t-91 -140t-130.5 -82t-173 -26.5h-45z" />
<glyph unicode="~" horiz-adv-x="1174" d="M98 614q141 119 308 119q65 0 118 -16t112 -44t97 -41.5t86 -13.5q53 0 110 24.5t103 64.5l68 -187q-138 -131 -316 -131q-62 0 -113 15t-113 42t-107 42.5t-95 15.5q-103 0 -192 -78z" />
<glyph unicode="&#xa1;" horiz-adv-x="934" d="M27 0l45 229h217l114 596h-217l45 228h699l-45 -228h-217l-115 -596h217l-45 -229h-698z" />
<glyph unicode="&#xa2;" horiz-adv-x="913" d="M88 422q0 20 4 70q12 114 51 208.5t102.5 168t145 121t174.5 63.5l35 190h197l-35 -176q93 -7 168 -35l-64 -221q-82 43 -182 43q-86 0 -156.5 -42.5t-113.5 -121t-52 -176.5q0 -113 48.5 -168t150.5 -55q114 0 223 47l-28 -225q-95 -38 -187 -43l-41 -209h-194l41 211 q-144 18 -215.5 109t-71.5 241z" />
<glyph unicode="&#xa3;" horiz-adv-x="983" d="M16 0l37 201q120 68 176 124.5t75.5 125.5t29.5 192h-189l39 201h166q4 42 6.5 86t5.5 74t11 69q37 191 151 284t312 93q89 0 163 -14l-43 -217q-82 16 -133 16q-157 0 -190 -172q-5 -24 -23 -219h254l-39 -201h-233q-10 -101 -29.5 -171.5t-60 -130t-115.5 -118.5 q86 4 141 4h295l-43 -227h-764z" />
<glyph unicode="&#xa4;" horiz-adv-x="5974" d="M37 743q0 184 61 306l269 -66q-29 -55 -45.5 -127.5t-16.5 -136.5q0 -93 31 -168t92.5 -125t155.5 -77t223 -27q339 0 651.5 100.5t874.5 328t979.5 342.5t879.5 115q192 0 367 -19t336.5 -56t318.5 -93q188 -66 323.5 -146.5t224.5 -173.5t132 -195t43 -210 q0 -138 -76.5 -250.5t-199.5 -181.5l-168 185q53 27 95 70t64.5 97.5t22.5 116.5q0 98 -62 186.5t-180 143.5t-274 55q-214 0 -607 -174t-814 -365t-912 -327.5t-1034 -136.5q-458 0 -806 88t-576 258q-132 100 -215.5 213t-120.5 225.5t-37 224.5zM664 164 q349 -195 1110 -195q464 0 898 124.5t1020 383.5t792.5 339.5t442.5 80.5q-373 84 -718 84q-395 0 -781.5 -112t-919 -329t-851 -318t-641.5 -101q-93 0 -176 9.5t-176 33.5z" />
<glyph unicode="&#xa5;" horiz-adv-x="1206" d="M76 180l30 168h312l24 119h-313l33 166h250l-224 749h277l106 -376q32 -107 54 -230h4q50 100 157 256l240 350h283l-516 -749h249l-32 -166h-310l-22 -119h309l-31 -168h-311l-35 -180h-258l33 180h-309z" />
<glyph unicode="&#xa7;" horiz-adv-x="1862" d="M-31 1516l160 159l387 -387l6 6q189 144 432 144q204 0 375.5 -99.5t271 -271.5t99.5 -375q0 -75 -16 -153t-48.5 -149.5t-76.5 -129.5l-9 -6l387 -387l-159 -158l-385 385l-9 -6q-189 -141 -430 -141q-203 0 -374.5 99t-271 271t-99.5 375q0 119 36.5 230t104.5 200l6 8 zM473 692q0 -97 36 -183.5t105.5 -156t156 -105.5t183.5 -36q127 0 242 74l4 4l-649 649l-4 -4q-74 -107 -74 -242zM709 1096l649 -650l4 5q35 50 54.5 113.5t19.5 127.5q0 100 -37 188t-103 154t-153.5 103t-188.5 37q-128 0 -241 -74z" />
<glyph unicode="&#xa8;" horiz-adv-x="850" d="M182 911q0 145 59 256t158.5 171.5t214.5 60.5q141 0 200.5 -52t59.5 -130q0 -128 -125.5 -194.5t-349.5 -72.5v-41q0 -52 29 -75t100 -23q111 0 228 45v-156q-140 -49 -295 -49q-151 0 -215 66.5t-64 193.5zM420 1081q242 9 242 111q0 28 -18 42.5t-52 14.5 q-63 0 -106.5 -48.5t-65.5 -119.5z" />
<glyph unicode="&#xa9;" horiz-adv-x="887" d="M154 885q0 103 31.5 195.5t93.5 164t154.5 111t213.5 39.5q170 0 291 -21q-8 -43 -34.5 -172t-39 -197.5t-28 -147t-33.5 -191.5h-213q10 51 57 180h-2q-117 -197 -299 -197q-192 0 -192 236zM377 920q0 -50 13 -71.5t42 -21.5q47 0 98 52t92.5 135t59.5 166l10 45 q-37 10 -84 10q-69 0 -121.5 -47.5t-81 -120.5t-28.5 -147z" />
<glyph unicode="&#xaa;" horiz-adv-x="2073" d="M221 645q0 176 87.5 325.5t237.5 235.5t324 86q205 0 367 -116l307 305l-411 -8v225h790v-791h-225l10 412l-305 -305q56 -77 86.5 -172.5t30.5 -196.5q0 -154 -67 -286.5t-186.5 -222.5t-262.5 -118v-256h354v-221h-354v-280h-267v280h-354v221h354v256 q-145 28 -263.5 118t-185.5 222.5t-67 286.5zM463 645q0 -110 55 -203.5t148 -147.5t204 -54q110 0 204 54t149 147.5t55 203.5q0 111 -55 205t-149 148.5t-204 54.5q-111 0 -204 -54.5t-148 -148.5t-55 -205z" />
<glyph unicode="&#xab;" horiz-adv-x="676" d="M145 664l37 167q63 -18 115 -18q113 0 113 68q0 30 -19.5 48.5t-68.5 58.5t-73.5 77t-25.5 96q0 105 86 171.5t250 66.5q64 0 129 -10l-37 -154q-49 12 -98 12q-104 0 -104 -65q0 -30 64.5 -88t93.5 -93t30 -102q0 -63 -39 -119.5t-119.5 -92.5t-197.5 -36q-67 0 -136 13 z" />
<glyph unicode="&#xac;" horiz-adv-x="594" d="M162 666l135 716h209q-14 -75 -57 -192h2q39 71 77.5 115.5t89.5 68t117 23.5l-45 -195q-16 4 -26 4q-49 0 -100.5 -47t-93.5 -137.5t-67 -220.5l-26 -135h-215z" />
<glyph unicode="&#xad;" d="M158 446l43 228h815l-43 -228h-815z" />
<glyph unicode="&#xae;" horiz-adv-x="532" d="M-354 -494l59 213q54 -14 100 -14q98 0 155.5 61t86.5 216l199 1026q51 261 178 382t342 121q73 0 139 -12l-57 -213q-52 12 -107 12q-92 0 -149 -61.5t-86 -210.5l-201 -1053q-92 -483 -512 -483q-57 0 -147 16z" />
<glyph unicode="&#xaf;" horiz-adv-x="1966" d="M160 592l1573 717l-279 -1434z" />
<glyph unicode="&#xb0;" horiz-adv-x="788" d="M233 1167q0 7 5 47q11 94 65.5 164t132.5 106t156 36q88 0 146 -29.5t84 -80.5t26 -116q0 -28 -2 -45q-12 -95 -67 -164t-133 -104t-161 -35q-118 0 -185 58.5t-67 162.5zM430 1225q0 -113 94 -113q51 0 87 37t42 98q0 47 -21 78t-71 31t-87.5 -36t-43.5 -95z" />
<glyph unicode="&#xb1;" horiz-adv-x="1292" d="M16 -162l43 219h975l-43 -219h-975zM141 526l41 215h375l74 375h246l-74 -375h375l-41 -215h-375l-74 -376h-246l72 376h-373z" />
<glyph unicode="&#xb4;" horiz-adv-x="907" d="M174 879q0 103 31 197t92.5 166.5t153 113.5t215.5 41q11 0 71 -4l62 325h217l-201 -1052h-211q12 62 60 190l-2 2q-59 -103 -135.5 -156t-166.5 -53q-186 0 -186 230zM397 909q0 -84 56 -84q37 0 88 54t93.5 134.5t59.5 157.5l13 56q-48 10 -80 10q-73 0 -125 -49.5 t-78.5 -125t-26.5 -153.5z" />
<glyph unicode="&#xb5;" horiz-adv-x="1206" d="M-47 -516l293 1534h254l-119 -621q-8 -40 -8 -78q0 -63 28 -90.5t82 -27.5q57 0 119 55.5t114.5 141t90.5 181.5t53 175l49 264h256l-194 -1018h-244q13 89 88 313h-2q-70 -146 -166.5 -237.5t-204.5 -91.5q-92 0 -131 55l-4 -2q-2 -31 -33 -201l-67 -352h-254z" />
<glyph unicode="&#xb6;" horiz-adv-x="1323" d="M240 885q0 42 10 100q22 118 98 208.5t192 139.5t255 49h591l-40 -211h-138l-262 -1368h-229l264 1368h-129l-264 -1368h-228l152 785q-272 55 -272 297z" />
<glyph unicode="&#xb8;" horiz-adv-x="1853" d="M70 348q0 149 44.5 285.5t129 246t197.5 171t243 61.5q106 0 173 -34t98.5 -90.5t31.5 -127.5q0 -91 -77 -183t-225 -155.5t-345 -70.5q-6 -37 -6 -74q0 -94 63.5 -141.5t194.5 -47.5q153 0 292 39.5t246.5 106.5t167.5 150t60 167q0 88 -30 126t-103 38h-84l39 203h647 l-41 -203h-236q26 -19 40 -59t14 -88q0 -128 -78 -251.5t-221 -224.5t-334.5 -160t-413.5 -59q-163 0 -270.5 39.5t-162 123t-54.5 212.5zM377 647q175 13 265.5 67t90.5 120q0 29 -21.5 50t-66.5 21q-83 0 -155.5 -68.5t-112.5 -189.5z" />
<glyph unicode="&#xba;" horiz-adv-x="2048" d="M0 686q0 276 137.5 512.5t374 374t512.5 137.5t512.5 -137.5t374 -374t137.5 -512.5t-137.5 -512.5t-374 -374t-512.5 -137.5t-512.5 137.5t-374 374t-137.5 512.5z" />
<glyph unicode="&#xbb;" horiz-adv-x="649" d="M190 1225l31 157h119l43 215l223 41l-49 -256h168l-29 -157h-170l-55 -305q-4 -19 -4 -48q0 -28 12.5 -39.5t44.5 -11.5q49 0 92 10l-20 -159q-86 -21 -164 -21q-101 0 -147.5 38t-46.5 120q0 34 10 92l63 324h-121z" />
<glyph unicode="&#xbf;" horiz-adv-x="899" d="M168 909q0 145 63 257t170.5 172.5t229.5 60.5q161 0 235 -70.5t74 -193.5q0 -141 -63.5 -251.5t-171 -171.5t-230.5 -61q-159 0 -233 67t-74 191zM395 940q0 -113 109 -113q94 0 151.5 85t57.5 198q0 115 -113 115q-64 0 -110 -42.5t-70.5 -109t-24.5 -133.5z" />
<glyph unicode="&#xc0;" horiz-adv-x="2759" d="M94 354q222 54 351 155.5t253 258.5t212.5 224t248.5 67q98 0 170 -37.5t108 -98.5t36 -128q0 -83 -41 -127q91 24 208.5 40.5t227.5 16.5q258 0 447.5 -77.5t326.5 -233.5l-172 -193q-54 86 -140 147t-201.5 92.5t-250.5 31.5q-132 0 -328 -41q43 -11 82.5 -41t69 -72 t46.5 -93.5t17 -101.5q0 -100 -47 -177t-136 -120t-212 -43q-114 0 -208 45.5t-239.5 146t-249 149.5t-229.5 49q-136 0 -254 -64zM766 291q88 -12 160 -50t156.5 -100t145.5 -92.5t132 -30.5t113.5 39.5t42.5 104.5q0 78 -53.5 149.5t-139.5 94.5q-367 -71 -557 -115z" />
<glyph unicode="&#xc1;" horiz-adv-x="1165" d="M53 0l264 1382q140 9 381 9q221 0 328 -80t107 -236q0 -118 -52.5 -213.5t-149.5 -159.5t-231 -96q170 -241 314 -412t275 -281.5t255 -162t250 -51.5q117 0 218 32.5t163 88.5l100 -193q-202 -159 -503 -159q-176 0 -339 62t-322 193.5t-322.5 337t-356.5 510.5h-8 l-111 -571h-260zM461 768q36 -4 90 -4q85 0 155.5 33t109 93t38.5 136q0 148 -199 148q-72 0 -118 -7z" />
<glyph unicode="&#xc2;" horiz-adv-x="1161" d="M53 0l264 1382q140 9 396 9q436 0 436 -318q0 -186 -102.5 -300.5t-274.5 -164.5l248 -608h-305l-199 557h-96l-107 -557h-260zM461 764q40 -4 104 -4q83 0 152.5 32.5t110 93t40.5 140.5q0 74 -48 111t-154 37q-83 0 -129 -7z" />
<glyph unicode="&#xc3;" horiz-adv-x="2615" d="M96 629l201 98q22 -66 57.5 -121t86 -88t112.5 -33q92 0 137 61t107 196.5t131 204.5t198 69q88 0 151.5 -37t98.5 -101.5t43 -144.5q116 133 276 216t337 83q122 0 218.5 -36.5t164.5 -102.5t102.5 -148.5t34.5 -171.5q0 -128 -48.5 -227t-136 -163.5t-210.5 -92.5 l-72 221q217 43 217 248q0 68 -32 128t-94 95t-148 35q-217 0 -443 -239q66 0 119.5 -35t84 -95t30.5 -131q0 -83 -42 -151.5t-120 -116.5t-192 -75t-255 -27q-266 0 -502 86t-396 241.5t-216 354.5z" />
<glyph unicode="&#xc4;" horiz-adv-x="563" d="M47 137q0 47 24 87.5t64 63.5t86 23q67 0 114.5 -48.5t47.5 -112.5q0 -72 -50.5 -123.5t-119.5 -51.5q-68 0 -117 49t-49 113zM158 717q0 48 24 88t64 63t86 23q68 0 115 -48t47 -114q0 -71 -51.5 -122.5t-120.5 -51.5q-67 0 -115.5 48.5t-48.5 113.5zM268 1296 q0 47 23.5 87.5t63 63.5t85.5 23q67 0 115.5 -48.5t48.5 -112.5q0 -73 -51.5 -123.5t-120.5 -50.5q-66 0 -115 49t-49 112z" />
<glyph unicode="&#xc5;" horiz-adv-x="2757" d="M141 473q0 299 114.5 575.5t319 492.5t467 337t549.5 121q228 0 399.5 -64.5t279 -174.5t160 -251.5t52.5 -300.5q0 -106 -24 -223t-69 -229.5t-113 -218.5t-162 -205q63 -38 125.5 -66t116 -42.5t98.5 -14.5q56 0 107.5 9.5t94 25.5t90.5 43l41 -209 q-88 -54 -184.5 -78.5t-210.5 -24.5q-60 0 -137 23t-167.5 67.5t-178.5 100.5q-87 -59 -188.5 -102t-212.5 -66t-230 -23q-209 0 -316.5 92t-107.5 242q0 82 25.5 154.5t70 133t107.5 116t141 110.5q-106 169 -106 297q0 119 61.5 214.5t167 148.5t229.5 53 q80 0 145.5 -21.5t108 -59.5t64.5 -90t22 -114q0 -84 -37.5 -157.5t-115 -146.5t-199.5 -152q68 -79 165.5 -167.5t209.5 -168.5q91 88 164 208.5t113 254.5t40 268q0 159 -71 293.5t-221 214.5t-373 80q-242 0 -456 -109.5t-372.5 -295t-247 -412.5t-88.5 -455 q0 -182 55 -330.5t160.5 -253t257.5 -160t345 -55.5q83 0 149.5 7t123.5 20t110 30l43 -229q-109 -34 -220.5 -49.5t-244.5 -15.5q-243 0 -437.5 72t-328 204.5t-203.5 318t-70 408.5zM1130 365q0 -70 51.5 -119t145.5 -49q185 0 371 114q-219 164 -369 340 q-97 -73 -148 -140.5t-51 -145.5zM1341 1137q0 -75 68 -176q112 79 166.5 136t54.5 126q0 46 -30.5 74t-83.5 28q-46 0 -86 -23.5t-64.5 -66.5t-24.5 -98z" />
<glyph unicode="&#xc6;" horiz-adv-x="465" d="M160 666l139 716h217l-139 -716h-217zM313 1583q2 37 21.5 65.5t51 45t69.5 16.5q54 0 91.5 -35t37.5 -82q-2 -55 -45 -92t-101 -37q-54 0 -89.5 35.5t-35.5 83.5z" />
<glyph unicode="&#xc7;" horiz-adv-x="1280" d="M125 571q7 205 85 372.5t220.5 280t331.5 152.5l57 246h152l-51 -227h114l51 227h152l-55 -242q77 -10 135 -26l-51 -236q-54 20 -138 35l-208 -938q59 6 126.5 23t114.5 38l-28 -233q-132 -45 -267 -53l-67 -299h-152l66 293q-66 0 -115 8l-68 -301h-151l76 334 q-106 35 -179.5 105t-112 179t-38.5 262zM397 623q0 -124 29 -205.5t92 -126.5l184 827q-94 -37 -160.5 -115t-102.5 -178.5t-42 -201.5zM653 227q69 -16 113 -18l215 958q-82 0 -117 -2z" />
<glyph unicode="&#xc8;" horiz-adv-x="2673" d="M-152 -532l54 266h891l120 624h-890l225 1158h2050l-346 -1782h626l-51 -266h-895l348 1781h-1517l-123 -624h891l-225 -1157h-1158z" />
<glyph unicode="&#xc9;" horiz-adv-x="2136" d="M53 0l262 1382q140 9 371 9q221 0 327.5 -80.5t106.5 -235.5q0 -175 -107.5 -294.5t-293.5 -168.5l141 -161q13 -14 49 -58t63.5 -74t51 -48.5t61.5 -37.5l148 785h252q-32 -136 -94 -320l4 -2q51 103 116.5 180.5t144.5 120.5t165 43q117 0 178 -78t61 -239 q0 -166 -46 -304t-136 -240t-222.5 -158t-295.5 -56q-45 0 -68 2l-88 -461h-256l92 486q-66 15 -117.5 45.5t-93 70.5t-92.5 103t-106 131l-187 229h-20l-109 -571h-262zM461 768q36 -4 78 -4q85 0 155.5 33t109 93t38.5 136q0 148 -199 148q-60 0 -106 -7zM1335 195 q58 -5 64 -5q129 0 217 64.5t133 174t45 245.5q0 141 -76 141q-52 0 -111 -54t-111.5 -138.5t-90.5 -177t-55 -175.5z" />
<glyph unicode="&#xca;" horiz-adv-x="1364" d="M94 506q0 190 65 353.5t185.5 287t283 190t353.5 66.5q212 0 397 -55l-78 -252q-163 69 -346 69q-171 0 -302.5 -86t-202 -228t-70.5 -310q0 -138 83 -230t255 -92q101 0 198 27l68 356h-287l45 217h545l-145 -758q-113 -41 -233.5 -61t-237.5 -20q-194 0 -323 65.5 t-191 183.5t-62 277z" />
<glyph unicode="&#xcb;" horiz-adv-x="3551" d="M-152 -532l54 266h1767l123 624h-1769l225 1158h2928l-348 -1782h629l-51 -266h-895l348 1781h-2396l-123 -624h1769l-225 -1157h-2036z" />
<glyph unicode="&#xcc;" horiz-adv-x="2490" d="M115 856q0 178 41.5 340t117.5 293.5t179 232.5l172 -182q-115 -115 -181.5 -287.5t-66.5 -369.5q0 -212 83.5 -407t231.5 -344.5t334.5 -231.5t388.5 -82q160 0 293 66.5t226 183t141.5 265.5t48.5 318q0 203 -66 352.5t-179 229.5t-253 80q-134 0 -205.5 -68.5 t-79.5 -185.5q75 106 224 106q75 0 138.5 -24t105 -65t63.5 -93.5t22 -112.5q0 -116 -46.5 -193t-139 -178.5t-139.5 -189.5t-47 -223q0 -42 6 -92l-197 -21q-75 168 -184.5 271t-266 209t-225.5 186.5t-69 208.5q0 91 35.5 166.5t110 121.5t183.5 46q67 0 132.5 -33 t97.5 -84q0 138 57.5 243t170 163.5t269.5 58.5q201 0 369 -111t265.5 -305t97.5 -430q0 -208 -65.5 -404t-193 -352.5t-310.5 -246t-408 -89.5q-348 0 -642.5 171t-467 462t-172.5 631zM829 842q0 -78 45.5 -125t163.5 -127t200.5 -160.5t141.5 -208.5q0 112 35.5 188.5 t107.5 164.5t103 137.5t31 124.5q0 55 -40.5 93t-105.5 38q-73 0 -117.5 -52.5t-45.5 -156.5l-154 -4q-36 101 -97.5 160t-142.5 59q-55 0 -90 -37t-35 -94z" />
<glyph unicode="&#xcd;" horiz-adv-x="1493" d="M78 612q0 109 33 202t94 157.5t146 98.5t188 34q90 0 162.5 -29t122 -82.5t75.5 -124.5q71 37 112.5 89t41.5 118q0 93 -61 155t-163 62q-71 0 -130 -28t-97 -78l-158 160q52 66 160 110.5t230 44.5q98 0 183 -32t147.5 -89.5t98 -138t35.5 -174.5q0 -214 -194 -332 q52 -4 105.5 -30.5t98 -70.5t71 -101t26.5 -125q0 -141 -95 -232.5t-290 -91.5q-57 0 -94.5 6t-100.5 21t-90 20.5t-61 5.5q-39 0 -69 -28t-30 -70q0 -43 35.5 -86.5t92.5 -71.5t120 -28q51 0 100 23.5t91 68.5l160 -160q-65 -70 -145 -108.5t-187 -38.5q-148 0 -286 92.5 t-246.5 242.5t-170 320.5t-61.5 318.5zM317 594q0 -142 50 -260q3 79 56.5 167t137 161t166.5 110q-20 51 -64 84t-112 33q-70 0 -123.5 -39.5t-82 -106.5t-28.5 -149zM547 281q40 53 129 53q39 0 69 -4.5t86.5 -15t81 -14t68.5 -3.5q76 0 119 36t43 95q0 70 -59.5 123.5 t-155.5 66.5q-250 -98 -381 -337z" />
<glyph unicode="&#xce;" horiz-adv-x="2853" d="M59 559q252 27 405 131.5t310.5 290t265 269t291.5 83.5q118 0 214 -37t165.5 -103.5t107 -156.5t37.5 -192q0 -175 -129 -289q93 -8 195 -8q188 0 313 38t187.5 114.5t62.5 193.5q0 70 -27 136t-82 120.5t-141 95.5l119 203q124 -57 212.5 -144t135.5 -193.5t47 -225.5 q0 -134 -50 -241.5t-144.5 -180.5t-227.5 -110.5t-292 -37.5q-64 0 -121 7q48 -26 95.5 -78.5t79.5 -125.5t32 -153q0 -198 -128.5 -318t-353.5 -120q-208 0 -368 87t-382 272.5t-396.5 293.5t-417.5 154zM379 440q182 -40 323.5 -133t326.5 -250t309 -230t274 -73 q108 0 175.5 57.5t67.5 155.5q0 84 -41 154.5t-118.5 122.5t-190.5 80t-254 28l-12 219q16 -2 47 -2q94 0 163 37t106.5 100.5t37.5 143.5q0 113 -71.5 187.5t-184.5 74.5q-124 0 -201.5 -68t-200 -225t-244 -251t-312.5 -128z" />
<glyph unicode="&#xcf;" horiz-adv-x="2052" d="M49 924q0 98 34.5 183.5t98.5 147.5t155.5 95.5t201.5 33.5q95 0 189.5 -36t175 -106.5t136.5 -170.5q30 138 140 225.5t280 87.5q152 0 275 -62.5t191.5 -173.5t68.5 -247t-54.5 -239.5t-174 -274.5t-180 -310t-60.5 -321q0 -78 16 -180l-227 -12q-90 214 -253.5 345.5 t-455 314.5t-424.5 331t-133 369zM305 942q0 -155 107.5 -271.5t348 -271.5t373 -256.5t218.5 -253.5q0 17 -0.5 27.5t-1.5 22.5q0 154 51 271.5t147.5 255t142.5 222.5t46 193q0 130 -75.5 211.5t-203.5 81.5q-82 0 -142 -37t-92 -106.5t-32 -166.5q0 -26 8 -96l-225 -12 q-21 77 -60 153.5t-94.5 136t-128.5 94t-162 34.5q-64 0 -115 -29.5t-80.5 -82.5t-29.5 -120z" />
<glyph unicode="&#xd1;" horiz-adv-x="1368" d="M29 602l32 201h164l111 577q20 1 113.5 4.5t176.5 5t136 1.5q146 0 256 -32.5t182.5 -95.5t109 -156t36.5 -216q0 -176 -56 -339t-166.5 -288.5t-277 -198.5t-381.5 -73q-111 0 -391 10l112 600h-157zM377 229q62 -10 127 -10q148 0 257.5 59.5t176.5 156.5t98 209.5 t31 219.5q0 97 -32.5 163t-107 103t-200.5 37q-107 0 -172 -6l-68 -358h238l-33 -201h-243z" />
<glyph unicode="&#xd2;" horiz-adv-x="2048" d="M199 965q0 41 21 78t58 58t78 21t78.5 -21t58.5 -58t21 -78q0 -66 -46 -112t-112 -46q-64 0 -110.5 46.5t-46.5 111.5zM532 1188q0 66 46 112t112 46q41 0 78.5 -21t58.5 -58.5t21 -78.5q0 -66 -46 -112t-112 -46q-64 0 -111 47t-47 111zM866 182q0 66 46 112t112 46 q41 0 78.5 -21t58.5 -58.5t21 -78.5t-21 -78t-58.5 -58t-78.5 -21q-65 0 -111.5 46.5t-46.5 110.5zM866 -227q0 65 46 111t112 46q41 0 78.5 -21t58.5 -58t21 -78q0 -66 -46 -112t-112 -46q-64 0 -111 47t-47 111zM866 592q0 66 46 112t112 46q41 0 78.5 -21t58.5 -58.5 t21 -78.5q0 -66 -46 -112t-112 -46q-64 0 -111 47t-47 111zM866 1001q0 66 46 112t112 46q41 0 78.5 -21t58.5 -57.5t21 -79.5q0 -41 -21 -78t-58.5 -58t-78.5 -21q-65 0 -111.5 46.5t-46.5 110.5zM866 1411q0 66 46 112t112 46q41 0 78.5 -21t58.5 -58.5t21 -78.5 q0 -66 -46 -112t-112 -46q-64 0 -111 47t-47 111zM1200 1188q0 66 46 112t112 46q41 0 78.5 -21t58.5 -58.5t21 -78.5q0 -66 -46 -112t-112 -46q-64 0 -111 47t-47 111zM1534 965q0 65 46 111t112 46q41 0 78 -21t58 -58t21 -78q0 -66 -46 -112t-111 -46q-64 0 -111 47 t-47 111z" />
<glyph unicode="&#xd3;" horiz-adv-x="2048" d="M0 -338v2048h2048v-2048h-2048z" />
<glyph unicode="&#xd4;" horiz-adv-x="1843" d="M0 -328v1844h1843v-1844h-1843z" />
<glyph unicode="&#xd5;" horiz-adv-x="2154" d="M158 1276q64 38 151.5 59t179.5 21q237 0 453 -109q138 110 356 213l138 -176q-70 -22 -153 -65t-150 -89q46 -32 99 -76.5t99 -89.5t84 -90q13 74 67 115t134 41q169 0 246 -136.5t77 -399.5q0 -134 9.5 -213t36.5 -148t81 -156l-172 -141q-34 66 -73 95t-85 35.5 t-137 6.5q-162 0 -293 40.5t-224.5 110t-143 158.5t-49.5 181q0 122 75.5 203.5t194.5 81.5q41 0 70 -11q-146 157 -279 248q-30 -45 -70.5 -121t-78.5 -162t-64 -165l-213 88q33 74 75.5 156t90.5 167t78 129q-123 60 -254 60q-159 0 -278 -70zM1145 426q0 -66 48.5 -125.5 t148 -97t239.5 -37.5q76 0 107 -10q-24 35 -86 122t-109.5 148.5t-81.5 101.5q-56 29 -123 29q-72 0 -107.5 -35t-35.5 -96z" />
<glyph unicode="&#xd6;" horiz-adv-x="1245" d="M55 451l27 180h131l82 434q282 6 397 6q164 0 274.5 -45t165 -133t54.5 -215q0 -148 -50 -274t-144 -218.5t-226 -142t-287 -49.5q-191 0 -387 8l86 449h-123zM393 221q34 -6 109 -6q146 0 236 70.5t127.5 167.5t37.5 184q0 99 -60.5 159t-189.5 60q-86 0 -139 -6 l-41 -219h184l-26 -180h-193z" />
<glyph unicode="&#xd8;" horiz-adv-x="465" d="M160 666l205 1052h217l-205 -1052h-217z" />
<glyph unicode="&#xd9;" horiz-adv-x="2030" d="M158 375q0 77 29.5 146t75 122t100.5 93t102 59q-69 34 -104 96.5t-35 134.5q0 123 66 232.5t196 178t309 68.5q133 0 242 -16l-60 -229q-43 11 -96 17.5t-109 6.5q-82 0 -142 -27.5t-91 -74.5t-31 -107q0 -66 67.5 -106.5t231.5 -40.5h49l-40 -201q-140 0 -245.5 -36.5 t-161.5 -108t-56 -166.5q0 -92 89 -142.5t267 -50.5q189 0 344 62t243.5 165.5t88.5 219.5q0 145 -176 145h-82l39 203h667l-39 -203h-196q53 -39 53 -131q0 -185 -131 -347t-357 -259.5t-491 -97.5q-167 0 -284 28t-192 81t-107.5 124.5t-32.5 161.5z" />
<glyph unicode="&#xda;" horiz-adv-x="2048" d="M866 182q0 66 46 112t112 46q41 0 78.5 -21t58.5 -58.5t21 -78.5t-21 -78t-58.5 -58t-78.5 -21q-65 0 -111.5 46.5t-46.5 110.5zM866 -227q0 65 46 111t112 46q41 0 78.5 -21t58.5 -58t21 -78q0 -66 -46 -112t-112 -46q-64 0 -111 47t-47 111zM866 592q0 66 46 112 t112 46q41 0 78.5 -21t58.5 -58.5t21 -78.5q0 -66 -46 -112t-112 -46q-64 0 -111 47t-47 111zM866 1001q0 66 46 112t112 46q41 0 78.5 -21t58.5 -57.5t21 -79.5q0 -41 -21 -78t-58.5 -58t-78.5 -21q-65 0 -111.5 46.5t-46.5 110.5zM866 1411q0 66 46 112t112 46 q41 0 78.5 -21t58.5 -58.5t21 -78.5q0 -66 -46 -112t-112 -46q-64 0 -111 47t-47 111z" />
<glyph unicode="&#xdb;" horiz-adv-x="2048" d="M199 219q0 41 21 78.5t58 58.5t78 21t78.5 -21t58.5 -58.5t21 -78.5q0 -66 -46 -112t-112 -46q-64 0 -110.5 46.5t-46.5 111.5zM532 -4q0 66 46 112t112 46q41 0 78.5 -21t58.5 -58.5t21 -78.5q0 -66 -46 -112t-112 -46q-64 0 -111 47t-47 111zM866 182q0 66 46 112 t112 46q41 0 78.5 -21t58.5 -58.5t21 -78.5t-21 -78t-58.5 -58t-78.5 -21q-65 0 -111.5 46.5t-46.5 110.5zM866 -227q0 65 46 111t112 46q41 0 78.5 -21t58.5 -58t21 -78q0 -66 -46 -112t-112 -46q-64 0 -111 47t-47 111zM866 592q0 66 46 112t112 46q41 0 78.5 -21 t58.5 -58.5t21 -78.5q0 -66 -46 -112t-112 -46q-64 0 -111 47t-47 111zM866 1001q0 66 46 112t112 46q41 0 78.5 -21t58.5 -57.5t21 -79.5q0 -41 -21 -78t-58.5 -58t-78.5 -21q-65 0 -111.5 46.5t-46.5 110.5zM866 1411q0 66 46 112t112 46q41 0 78.5 -21t58.5 -58.5 t21 -78.5q0 -66 -46 -112t-112 -46q-64 0 -111 47t-47 111zM1200 -4q0 66 46 112t112 46q41 0 78.5 -21t58.5 -58.5t21 -78.5q0 -66 -46 -112t-112 -46q-64 0 -111 47t-47 111zM1534 219q0 66 46 112t112 46q41 0 78 -21t58 -58.5t21 -78.5q0 -66 -46 -112t-111 -46 q-64 0 -111 47t-47 111z" />
<glyph unicode="&#xdc;" horiz-adv-x="1161" d="M72 362q0 133 44.5 247t122 197t179.5 128t215 45q155 0 223 -74q0 97 -16 158.5t-56 116.5l-186 -121l-143 112l170 111q-57 33 -140 33q-47 0 -133 -12l39 202q62 8 113 8q102 0 179.5 -18.5t139.5 -56.5l166 112l141 -114l-163 -111q63 -77 96 -184.5t33 -259.5 q0 -178 -40.5 -340t-119.5 -288t-198.5 -199.5t-272.5 -73.5q-204 0 -298.5 102t-94.5 280zM332 393q0 -84 44 -134t128 -50q151 0 225 143t74 273q0 61 -45 103t-127 42q-100 0 -167.5 -60t-99.5 -147.5t-32 -169.5z" />
<glyph unicode="&#xdf;" horiz-adv-x="1251" d="M-354 -494l59 213q58 -14 100 -14q98 0 155.5 62t86.5 217l148 772q35 185 113.5 327.5t188.5 237.5t249.5 143.5t293.5 48.5q79 0 164 -10l-47 -215q-65 10 -127 10q-148 0 -266.5 -64t-197 -183.5t-111.5 -288.5l-152 -789q-92 -483 -510 -483q-57 0 -147 16zM510 -6 l45 219q73 -27 147 -27q79 0 120.5 29t41.5 86q0 46 -26.5 75t-90.5 86.5t-96.5 112.5t-32.5 134q0 146 109 237.5t317 91.5q97 0 158 -12l-41 -199q-54 17 -129 17q-147 0 -147 -109q0 -39 45 -86.5t91.5 -90.5t80 -98t33.5 -134q0 -91 -50 -169.5t-152.5 -127.5 t-254.5 -49q-79 0 -168 14z" />
<glyph unicode="&#xe0;" horiz-adv-x="881" d="M18 688l193 60l121 634h264l-109 -559l205 62l4 -201l-250 -74l-69 -377h440l-45 -233h-706l104 537l-147 -48z" />
<glyph unicode="&#xe1;" horiz-adv-x="1141" d="M61 295q0 147 40.5 281t121 237.5t205.5 163t287 59.5q51 0 108 -8l27 137l-160 -37l-4 177l199 47l26 143h258l-18 -94l141 35v-181l-178 -41l-225 -1214h-252q15 85 94 324h-4q-190 -347 -426 -347q-240 0 -240 318zM326 344q0 -141 77 -141q69 0 147 90t139 219 t83 240l12 65q-56 14 -114 14q-112 0 -189.5 -73.5t-116 -187.5t-38.5 -226z" />
<glyph unicode="&#xe2;" horiz-adv-x="817" d="M37 543l153 47l93 475h262l-80 -403l186 53v-176l-221 -64l-47 -246h324l-45 -229h-584l78 401l-115 -34z" />
<glyph unicode="&#xe3;" horiz-adv-x="942" d="M33 2l47 252q112 -43 221 -43q88 0 148 24t91 68.5t31 108.5q0 66 -42.5 103.5t-145.5 107.5t-155 139.5t-52 179.5q0 129 62.5 234t185 167t297.5 62q128 0 227 -19l-45 -235q-93 33 -194 33q-124 0 -187 -52t-63 -128q0 -67 38.5 -104t145.5 -112t161 -147t54 -184 q0 -132 -73.5 -242.5t-204.5 -174t-297 -63.5q-68 0 -134.5 7t-115.5 18zM414 1653l88 153l223 -129l236 129l73 -151l-319 -180z" />
<glyph unicode="&#xe4;" horiz-adv-x="596" d="M23 498l10 198l190 60l142 739h258l-129 -666l153 48l-10 -201l-182 -55l-119 -621h-258l104 549z" />
<glyph unicode="&#xe5;" horiz-adv-x="850" d="M35 2l51 231q83 -36 190 -36q80 0 124 37.5t44 93.5q0 48 -31 71.5t-112 69.5t-122.5 97.5t-41.5 135.5q0 100 51 187.5t154 141.5t246 54q99 0 211 -16l-49 -221q-84 26 -166 26q-76 0 -119 -31.5t-43 -90.5q0 -52 108 -118.5t156.5 -109.5t48.5 -151q0 -110 -61 -201.5 t-170 -143t-246 -51.5q-121 0 -223 25zM285 1341l88 156l223 -131l238 131l71 -151l-319 -181z" />
<glyph unicode="&#xe6;" horiz-adv-x="1374" d="M162 666l135 716h211q-13 -69 -57 -184h4q124 201 297 201q70 0 113.5 -36.5t43.5 -105.5q0 -39 -12 -65h4q57 93 132 150t171 57q61 0 99 -20.5t56.5 -58t18.5 -87.5q0 -22 -8 -72l-98 -495h-215l88 446q6 34 6 55q0 56 -43 56q-27 0 -63.5 -29t-75 -83.5t-65.5 -116.5 t-40 -130l-39 -198h-217l90 446q7 37 7 53q0 58 -46 58q-38 0 -88 -52t-94 -137t-61 -170l-39 -198h-215z" />
<glyph unicode="&#xe7;" horiz-adv-x="772" d="M18 -6l48 221q85 -29 155 -29q80 0 125 29.5t45 85.5q0 45 -27 73.5t-97 87.5t-104 113.5t-34 133.5q0 95 49 169t148 117t239 43q103 0 174 -14l-49 -201q-60 21 -137 21q-75 0 -116.5 -29.5t-41.5 -79.5q0 -51 91.5 -132.5t133.5 -130.5t42 -146q0 -66 -29 -128 t-88 -111.5t-146.5 -78t-201.5 -28.5q-88 0 -179 14zM252 1341l88 156l223 -131l238 131l71 -151l-319 -181z" />
<glyph unicode="&#xe8;" horiz-adv-x="1022" d="M125 1065h274l80 -272q33 -105 49 -197h2q38 71 132 207l182 262h280l-510 -719l-65 -346h-258l65 342zM471 1303l367 225l106 -180l-385 -195z" />
<glyph unicode="&#xe9;" d="M180 1382h275l104 -397q26 -92 49 -229h4q38 71 158 256l238 370h288l-602 -893l-92 -489h-260l92 487zM598 1622l367 223l104 -178l-385 -194z" />
<glyph unicode="&#xea;" horiz-adv-x="1055" d="M-197 -494l43 226q55 -21 125 -21q105 0 191 84q47 47 70.5 109t23.5 153q0 387 -158 961h287q20 -73 40 -176t33 -189.5t21 -185.5t8 -176q0 -43 -10 -86h4q60 110 126.5 248t132.5 291t130 317l250 -70q-108 -249 -210.5 -456.5t-193.5 -363t-178.5 -274t-183.5 -216.5 q-98 -98 -197 -144.5t-202 -46.5q-83 0 -152 16zM473 1303l367 225l104 -180l-385 -195z" />
<glyph unicode="&#xeb;" horiz-adv-x="1077" d="M53 0l266 1382h263l-39 -204q37 2 121 2q207 0 322.5 -93t115.5 -264q0 -111 -44 -212t-128.5 -180.5t-204 -125t-264.5 -45.5q-46 0 -94 6l-52 -266h-262zM410 487q39 -6 75 -6q103 0 181 43.5t119.5 116t41.5 150.5q0 81 -52 127.5t-157 46.5q-73 0 -118 -7z" />
<glyph unicode="&#xec;" horiz-adv-x="1118" d="M-41 -494l379 1989h260l-66 -338q-23 -123 -50.5 -219.5t-80.5 -230.5l9 -2q81 155 188.5 245t235.5 90q117 0 176 -78t59 -239q0 -146 -40.5 -281t-122 -238.5t-204.5 -162.5t-286 -59q-54 0 -111 8l-90 -484h-256zM348 205q63 -19 115 -19q110 0 187.5 74.5t116 187.5 t38.5 226q0 141 -78 141q-51 0 -110 -54t-111.5 -138.5t-90.5 -177t-55 -175.5z" />
<glyph unicode="&#xed;" horiz-adv-x="1044" d="M70 0l206 1065h263l-31 -147h98q182 0 285.5 -74.5t103.5 -214.5q0 -101 -39.5 -187t-110.5 -147t-167 -94t-203 -33q-70 0 -110 4l-33 -172h-262zM406 383q44 -4 75 -4q112 0 175 63t63 144q0 56 -39 89.5t-117 33.5q-67 0 -94 -2z" />
<glyph unicode="&#xee;" horiz-adv-x="1065" d="M2 0l39 205l621 811q41 56 112 131q-98 -4 -242 -4h-294l43 239h862l-39 -213l-651 -831q-42 -56 -80 -96q33 4 291 4h272l-47 -246h-887zM489 1653l89 153l223 -129l235 129l74 -151l-319 -180z" />
<glyph unicode="&#xef;" horiz-adv-x="991" d="M18 0l37 205l471 536q62 70 80 88q-37 -2 -180 -2h-238l45 238h756l-41 -215l-489 -547q-9 -11 -26.5 -28.5t-31.5 -32.5q25 4 213 4h228l-47 -246h-777zM350 1341l88 156l224 -131l235 131l74 -151l-320 -181z" />
<glyph unicode="&#xf1;" horiz-adv-x="895" d="M4 0l35 186l489 602q-78 -4 -204 -4h-160l45 234h690l-37 -187l-481 -593q43 2 217 2h160l-45 -240h-709zM297 1341l90 156l223 -131l236 131l74 -151l-320 -181z" />
<glyph unicode="&#xf2;" horiz-adv-x="1784" d="M205 0v1382h1374v-1382h-1374zM459 242h866v899h-866v-899z" />
<glyph unicode="&#xf3;" horiz-adv-x="1784" d="M205 0v1382h1374v-1382h-1374z" />
<glyph unicode="&#xf4;" horiz-adv-x="1784" d="M322 123v156l411 411l2 2l-413 412v158h161l412 -412l412 412h155v-156l-409 -412v-2l409 -409v-160h-157l-412 412l-414 -412h-157z" />
<glyph unicode="&#xf5;" horiz-adv-x="1784" d="M147 692q0 151 58 288t161 240t240 160.5t287 57.5t288.5 -58t239.5 -159t159 -240t58 -289q0 -149 -57.5 -286.5t-159.5 -239.5t-239 -160.5t-289 -58.5t-287.5 58t-239.5 161.5t-161.5 239.5t-57.5 286zM412 692q0 -97 36 -183.5t105.5 -156t156 -105.5t183.5 -36 t184.5 36.5t155.5 104.5t104.5 154t36.5 186t-37 188t-103 154t-153.5 103t-187.5 37t-186 -36.5t-154 -104.5t-104.5 -156.5t-36.5 -184.5z" />
<glyph unicode="&#xf6;" horiz-adv-x="1784" d="M147 692q0 151 58 288t161 240t240 160.5t287 57.5t288.5 -58t239.5 -159t159 -240t58 -289q0 -149 -57.5 -286.5t-159.5 -239.5t-239 -160.5t-289 -58.5t-287.5 58t-239.5 161.5t-161.5 239.5t-57.5 286z" />
<glyph unicode="&#xf7;" horiz-adv-x="1380" d="M168 418l41 219h1036l-41 -219h-1036zM461 111q0 71 49.5 120.5t118.5 49.5q68 0 113.5 -46.5t45.5 -111.5q0 -48 -22.5 -86t-60.5 -61t-82 -23q-68 0 -115 47t-47 111zM621 934q0 71 49.5 120.5t117.5 49.5q69 0 114.5 -46.5t45.5 -111.5q0 -70 -50 -120t-118 -50 q-65 0 -112 48t-47 110z" />
<glyph unicode="&#xf8;" horiz-adv-x="928" d="M162 666l135 716h211q-10 -69 -55 -184h2q126 203 305 203q61 0 100 -21t57.5 -58.5t18.5 -88.5q0 -20 -8 -70l-99 -497h-215l88 446q7 32 7 55q0 58 -45 58q-40 0 -90 -51.5t-94.5 -136t-61.5 -173.5l-39 -198h-217z" />
<glyph unicode="&#xf9;" horiz-adv-x="2048" d="M160 297v1315h1728v-1315h-227v1085h-1274v-1085h-227zM459 10l164 162l286 -307v885h230v-885l286 307l164 -162l-565 -565z" />
<glyph unicode="&#xfa;" horiz-adv-x="1784" d="M381 1047l160 157l354 -354l352 354l158 -157l-352 -353v-2l352 -352l-158 -160l-354 355l-354 -355l-156 158l352 352l-2 2z" />
<glyph unicode="&#xfb;" horiz-adv-x="2048" d="M160 -537v1315h227v-1085h1274v1085h227v-1315h-1728zM459 1065l565 565l565 -565l-164 -162l-286 307v-884h-230v884l-286 -307z" />
<glyph unicode="&#xfc;" horiz-adv-x="1855" d="M78 356q0 168 53 317t144 257.5t208 168.5t238 60q108 0 180 -33.5t107.5 -91t35.5 -131.5q0 -102 -80.5 -196t-236 -162t-377.5 -94q-2 -19 -2 -54q0 -104 49 -149t174 -45q147 0 310.5 56.5t307 164t233 260.5t89.5 338q0 84 -19.5 152.5t-59 118t-102.5 78t-144 28.5 v209q138 0 246.5 -43.5t179.5 -120.5t106 -177t35 -220q0 -238 -111 -436.5t-294.5 -341t-397.5 -217.5t-409 -75q-244 0 -353.5 91.5t-109.5 287.5zM389 662q197 24 295 80.5t98 123.5q0 37 -26.5 59.5t-77.5 22.5q-90 0 -170.5 -82t-118.5 -204z" />
<glyph unicode="&#xff;" horiz-adv-x="1217" d="M88 154l170 868l948 -430z" />
<glyph unicode="&#x152;" horiz-adv-x="3717" d="M193 700q0 80 23.5 152.5t61.5 130t76 90.5l238 -80q-54 -43 -93.5 -130.5t-39.5 -174.5q0 -90 34 -162.5t89 -112.5t114 -40q82 0 174.5 120t186 248t230.5 221t339 93q82 0 163.5 -20t149.5 -58q-141 -24 -255.5 -120.5t-275 -275.5t-266.5 -264.5t-227 -85.5 q30 -11 94 -20.5t109 -9.5q186 0 322 108t373 356.5t445.5 376t494.5 127.5q204 0 363.5 -82.5t247 -224t87.5 -307.5q0 -134 -44 -242t-125.5 -182t-192.5 -111.5t-244 -37.5q-69 0 -129 14l16 225q51 -10 131 -10q141 0 232.5 91.5t91.5 246.5q0 108 -54 198t-153.5 141.5 t-237.5 51.5q-113 0 -201 -31.5t-176 -105.5q63 -48 100.5 -126.5t37.5 -168.5q0 -192 -119 -328.5t-344 -208t-535 -71.5q-211 0 -397 30.5t-341 88.5t-265.5 134.5t-186.5 174.5q-45 61 -72 122.5t-38.5 123.5t-11.5 126z" />
<glyph unicode="&#x153;" horiz-adv-x="3920" d="M90 244q0 234 37 628h782l492 504h1409v-170q0 -55 -21 -102h676q72 0 131.5 -32t92 -88.5t32.5 -125.5q0 -70 -32 -125t-89.5 -87t-134.5 -32h-573q14 -31 14 -73q0 -98 -59 -160q59 -62 59 -160q0 -100 -66 -170t-147 -80q17 -31 17 -69q0 -70 -34 -126t-92 -87 t-130 -31h-2331q-18 181 -25.5 312.5t-7.5 273.5zM297 244q0 -118 6 -224t19 -192h1536q-15 27 -15 74q0 96 58 159q-58 65 -58 160q0 91 58 160q-58 61 -58 160q0 102 68 172.5t153 70.5h1401q32 0 53 21t21 53q0 19 -10 37.5t-27.5 28.5t-36.5 10h-788 q-45 -35 -99.5 -52.5t-128.5 -17.5h-565l-180 -286l-164 104l223 352h682q70 0 120 51t50 121h-1116l-493 -510h-684q-14 -126 -19.5 -234.5t-5.5 -217.5zM2023 -98q0 -31 22.5 -52.5t53.5 -21.5h355q31 0 52 21t21 53q0 18 -10 36.5t-27 28.5t-36 10h-355 q-31 0 -53.5 -22.5t-22.5 -52.5zM2023 221q0 -31 22.5 -53.5t53.5 -22.5h551q32 0 53 22t21 54q0 15 -5 28.5t-16 24.5t-24 16t-29 5h-551q-31 0 -53.5 -21.5t-22.5 -52.5zM2023 541q0 -31 22.5 -53.5t53.5 -22.5h551q32 0 53 22t21 54t-21.5 52.5t-52.5 20.5h-551 q-30 0 -53 -21t-23 -52z" />
<glyph unicode="&#x178;" horiz-adv-x="4008" d="M115 686q0 91 37 211l260 -57q-18 -37 -27.5 -86t-9.5 -80q0 -70 30.5 -126.5t93 -89t152.5 -32.5q187 0 373 63t541.5 209.5t630.5 222.5t565 76q185 0 366.5 -31.5t327.5 -84.5q248 -88 361.5 -215.5t113.5 -272.5q0 -109 -63 -204.5t-162 -145.5l-158 180 q64 38 96.5 88.5t32.5 106.5q0 51 -32.5 99t-91.5 78t-134 30q-118 0 -354.5 -108t-509.5 -234t-577 -213.5t-627 -87.5q-203 0 -392.5 31t-344 89.5t-259.5 139.5q-120 94 -179.5 206t-59.5 238zM813 262q192 -69 479 -69q242 0 488 71t474.5 168.5t480 202.5t380.5 110 q-67 19 -165.5 30t-192.5 11q-206 0 -428.5 -68t-542.5 -199.5t-517 -196t-376 -64.5q-26 0 -80 4z" />
<glyph unicode="&#x2c6;" horiz-adv-x="940" d="M94 735q0 186 98 334.5t276.5 230.5t405.5 82h572l-43 -223h-565q-152 0 -263 -49t-168 -136t-57 -198q0 -69 42 -113.5t122 -44.5q85 0 138 38t53 96q0 65 -103 65l39 201q50 4 55 4q140 0 202.5 -64.5t62.5 -162.5q0 -125 -66 -215t-176 -137.5t-236 -47.5 q-130 0 -217.5 42.5t-129.5 119.5t-42 178z" />
<glyph unicode="&#x2dc;" horiz-adv-x="819" d="M-393 0l39 207h348q259 0 372 46.5t113 123.5q0 82 -96 82q-48 0 -98 -15l26 205q58 15 117 15q148 0 221.5 -68.5t73.5 -177.5q0 -197 -188.5 -307.5t-579.5 -110.5h-348z" />
<glyph unicode="&#x2000;" horiz-adv-x="999" />
<glyph unicode="&#x2001;" horiz-adv-x="1999" />
<glyph unicode="&#x2002;" horiz-adv-x="999" />
<glyph unicode="&#x2003;" horiz-adv-x="1999" />
<glyph unicode="&#x2004;" horiz-adv-x="666" />
<glyph unicode="&#x2005;" horiz-adv-x="499" />
<glyph unicode="&#x2006;" horiz-adv-x="333" />
<glyph unicode="&#x2007;" horiz-adv-x="333" />
<glyph unicode="&#x2008;" horiz-adv-x="249" />
<glyph unicode="&#x2009;" horiz-adv-x="399" />
<glyph unicode="&#x200a;" horiz-adv-x="111" />
<glyph unicode="&#x2010;" d="M158 446l43 228h815l-43 -228h-815z" />
<glyph unicode="&#x2011;" d="M158 446l43 228h815l-43 -228h-815z" />
<glyph unicode="&#x2012;" d="M158 446l43 228h815l-43 -228h-815z" />
<glyph unicode="&#x2013;" horiz-adv-x="512" d="M0 477l45 230h512l-45 -230h-512z" />
<glyph unicode="&#x2014;" horiz-adv-x="1536" d="M0 477l45 230h1536l-45 -230h-1536z" />
<glyph unicode="&#x2018;" horiz-adv-x="643" d="M33 592l710 371l-145 -742z" />
<glyph unicode="&#x2019;" horiz-adv-x="643" d="M-39 221l143 742l566 -371z" />
<glyph unicode="&#x201a;" horiz-adv-x="643" d="M203 592q0 57 40 97t97 40t97 -40t40 -97t-40 -97t-97 -40t-97 40t-40 97z" />
<glyph unicode="&#x201c;" horiz-adv-x="1053" d="M33 592l1116 371l-143 -742z" />
<glyph unicode="&#x201d;" horiz-adv-x="1053" d="M-39 221l143 742l973 -371z" />
<glyph unicode="&#x201e;" horiz-adv-x="750" d="M221 592q0 72 50 121t120 49q46 0 85.5 -22.5t62 -62t22.5 -85.5q0 -70 -49 -120t-121 -50q-70 0 -120 50t-50 120z" />
<glyph unicode="&#x2022;" horiz-adv-x="956" d="M102 604q0 101 49.5 184.5t134 133t185.5 49.5q77 0 143 -27.5t118 -78.5t80 -118t28 -143q0 -102 -50 -186t-135.5 -133t-185.5 -49t-184 49t-133.5 133t-49.5 186zM362 604q0 -42 32 -75t77 -33t77 32t32 76q0 45 -32 77t-77 32t-77 -33t-32 -76z" />
<glyph unicode="&#x2026;" horiz-adv-x="926" d="M197 815q0 22 8 72l96 495h217l-88 -446q-4 -21 -4 -53q0 -31 10 -44.5t33 -13.5q40 0 91 52.5t93.5 135.5t59.5 171l41 198h217l-137 -716h-211q16 82 57 184l-2 2q-54 -90 -131 -146.5t-174 -56.5q-176 0 -176 166z" />
<glyph unicode="&#x202f;" horiz-adv-x="399" />
<glyph unicode="&#x2039;" horiz-adv-x="3291" d="M121 401l182 109q61 -126 167.5 -196t262.5 -70q172 0 362.5 63.5t515.5 199t538 203.5t407 68q237 0 385 -101t233 -278l-186 -106q-26 55 -67 107t-92.5 86.5t-120.5 53.5t-148 19q-172 0 -364 -65t-514 -200.5t-533 -202t-410 -66.5q-114 0 -211.5 28t-173.5 78 t-135 119.5t-98 150.5z" />
<glyph unicode="&#x203a;" horiz-adv-x="2863" d="M82 68q0 271 141.5 425t427.5 154q160 0 357.5 -52t481 -149t438.5 -141.5t278 -44.5q136 0 242.5 33.5t197.5 103.5l121 -200q-216 -158 -541 -158q-148 0 -316.5 46t-460.5 145.5t-471.5 148.5t-324.5 49q-117 0 -193 -45.5t-112.5 -126t-36.5 -188.5h-229zM94 979 q68 50 155 86t185 53t201 17q160 0 347 -49.5t488 -152t454.5 -145.5t281.5 -43q174 0 259 98t85 263h229q0 -132 -33.5 -238t-104 -182t-179.5 -117t-252 -41q-149 0 -331.5 49t-456.5 143t-452.5 144.5t-314.5 50.5q-135 0 -239 -33.5t-199 -105.5z" />
<glyph unicode="&#x205f;" horiz-adv-x="499" />
<glyph unicode="&#x2122;" horiz-adv-x="928" d="M166 680l203 1036h217l-58 -291q-23 -111 -73 -227h4q37 62 82.5 106.5t100.5 69.5t112 25q188 0 188 -230q0 -141 -55 -258.5t-165.5 -188.5t-272.5 -71q-141 0 -283 29zM412 821q37 -10 75 -10q74 0 126.5 49.5t79 125t26.5 153.5q0 84 -55 84q-39 0 -92.5 -55.5 t-96.5 -137.5t-55 -158z" />
<glyph unicode="&#x25fc;" horiz-adv-x="1380" d="M0 0v1380h1380v-1380h-1380z" />
</font>
</defs>
</svg>
